<svg width="108" height="19" viewBox="0 0 108 19" fill="none" xmlns="http://www.w3.org/2000/svg">
<path d="M0 18.0008L3.12701 0.263622H12.4686C14.9912 0.263622 16.5022 0.938074 17.0015 2.28698C17.5007 3.62712 17.4964 5.9045 16.9883 9.1191C16.4803 12.3687 15.7401 14.6636 14.7679 16.0038C13.7956 17.3352 12.0526 18.0008 9.53869 18.0008H0ZM6.31971 14.1381H8.50073C9.21898 14.1381 9.76204 13.9498 10.1299 13.5731C10.4978 13.1965 10.9095 11.7118 11.365 9.1191C11.8204 6.54391 11.9255 5.068 11.6803 4.69136C11.4438 4.31472 10.9708 4.1264 10.2613 4.1264H8.06715L6.31971 14.1381Z" fill="white"/>
<path d="M16.6625 18.0008L19.7895 0.263622H31.8508L31.1676 4.1264H24.7428L24.2041 7.22712H30.1297L29.4727 10.9454H23.5472L22.9822 14.1381H29.4071L28.7238 18.0008H16.6625Z" fill="white"/>
<path d="M37.9761 18.106C34.5163 18.106 32.4491 17.4841 31.7747 16.2403C31.109 14.9877 30.925 13.503 31.2229 11.7862H36.8725C36.6448 13.0476 36.728 13.779 37.1221 13.9804C37.5163 14.1731 38.0199 14.2695 38.6331 14.2695C39.2462 14.2695 39.7761 14.1906 40.2229 14.033C40.6783 13.8665 40.9499 13.5162 41.0375 12.9819C41.1426 12.3862 40.8754 11.9921 40.236 11.7994C39.6053 11.5979 38.6769 11.3746 37.4506 11.1293C35.0594 10.5425 33.5528 9.88114 32.9309 9.14537C32.3177 8.40085 32.0944 7.34975 32.2608 5.99209C32.3747 4.52056 33.0272 3.17165 34.2185 1.94537C35.4097 0.719096 37.6959 0.105957 41.0769 0.105957C44.4491 0.105957 46.4725 0.754132 47.1469 2.05048C47.8302 3.34683 48.036 4.79209 47.7645 6.38625H42.1148C42.3338 5.15121 42.2418 4.44172 41.8389 4.25778C41.436 4.07384 40.9499 3.98187 40.3805 3.98187C39.7411 3.98187 39.1849 4.0607 38.7119 4.21837C38.2477 4.36727 37.9718 4.68698 37.8842 5.17749C37.7615 5.9045 38.0068 6.35121 38.6199 6.51764C39.2418 6.68406 40.2141 6.91618 41.5367 7.21399C43.9805 7.79209 45.5134 8.39209 46.1353 9.01399C46.7659 9.62713 46.9849 10.6432 46.7922 12.0622C46.5995 13.5862 45.9338 14.9746 44.7951 16.2271C43.6652 17.4797 41.3922 18.106 37.9761 18.106Z" fill="white"/>
<path d="M46.977 18.0008L50.104 0.263622H61.5478L60.8514 4.1264H55.0573L54.3346 8.31764H59.6689L59.012 12.0227H53.6777L52.6135 18.0008H46.977Z" fill="white"/>
<path d="M58.2974 18.0008L65.5894 0.263622H74.1164L75.1675 18.0008H69.3864L69.4521 14.1249H65.4054L64.0784 18.0008H58.2974ZM66.9032 10.3541H69.3207L69.3733 3.67968H69.2288L66.9032 10.3541Z" fill="white"/>
<path d="M76.3686 18.0008L79.4956 0.263622H85.0927L83.8183 7.55559L88.6796 0.263622H94.9073L88.5745 9.19793L91.7015 18.0008H85.592L83.2533 10.722L81.9657 18.0008H76.3686Z" fill="white"/>
<path d="M92.6719 18.0008L95.7989 0.263622H107.86L107.177 4.1264H100.752L100.213 7.22712H106.139L105.482 10.9454H99.5565L98.9916 14.1381H105.416L104.733 18.0008H92.6719Z" fill="white"/>
</svg>
