<svg width="118" height="24" viewBox="0 0 118 24" fill="none" xmlns="http://www.w3.org/2000/svg">
<path fill-rule="evenodd" clip-rule="evenodd" d="M33.0954 13.7279C33.0954 11.2158 32.1457 7.35229 26.2467 7.35229C20.7425 7.35229 18.6934 10.9366 18.6934 15.229C18.6934 19.3954 20.4974 23.1057 26.1854 23.1057C29.8242 23.1057 31.8121 21.3289 32.8537 18.633L31.7543 18.0202C30.8352 19.7665 29.5213 20.7468 27.6559 20.7468C24.5992 20.7468 23.5576 18.2347 23.5576 15.018H31.4479C32.544 15.0146 33.0954 14.7082 33.0954 13.7279ZM27.3462 13.5441H23.5508C23.5508 11.3383 24.1329 8.76493 26.1208 8.76493C27.9861 8.76493 28.2925 11.0932 28.2925 12.5331C28.2925 13.3602 28.0474 13.5441 27.3462 13.5441Z" fill="white"/>
<path fill-rule="evenodd" clip-rule="evenodd" d="M44.3558 7.35229C43.0725 7.35229 42.0615 8.17945 40.2881 10.0482L39.9205 7.35229L33.9568 8.24072V9.3436L35.0256 9.49678C35.5158 9.55805 35.7608 9.83377 35.7608 11.0592V20.0694C35.7608 21.3561 35.5158 21.4786 33.7729 21.5706V22.7347H43.0078V21.5706C40.6523 21.448 40.3766 21.3561 40.3766 20.0694V13.2071C40.3766 11.614 40.6829 10.9094 41.4148 10.9094C41.905 10.9094 42.3645 11.1545 43.0351 11.5528C43.4333 11.7978 43.8622 12.0429 44.4409 12.0429C45.0536 12.0429 45.6629 11.7059 45.9999 11.2464C46.3369 10.7869 46.4901 10.1742 46.4901 9.50018C46.4969 8.17945 45.6425 7.35229 44.3558 7.35229Z" fill="white"/>
<path fill-rule="evenodd" clip-rule="evenodd" d="M54.0841 20.0694V7.53611L53.8696 7.35229L47.6609 8.24072V9.3436L48.7297 9.49678C49.2199 9.55805 49.465 9.83377 49.465 11.0592V20.0694C49.465 21.3561 49.2199 21.4786 47.4771 21.5706V22.7347H56.072V21.5706C54.3292 21.4786 54.0841 21.3561 54.0841 20.0694Z" fill="white"/>
<path fill-rule="evenodd" clip-rule="evenodd" d="M51.6062 6.03528C53.2877 6.03528 54.4213 4.80986 54.4213 3.33936C54.4213 1.89949 53.3524 0.674072 51.6062 0.674072C49.894 0.674072 48.8218 1.89949 48.8218 3.33936C48.8252 4.80986 49.894 6.03528 51.6062 6.03528Z" fill="white"/>
<path fill-rule="evenodd" clip-rule="evenodd" d="M73.8643 20.0694V7.53608L73.6499 7.35227C72.1521 7.47481 69.9192 7.71989 67.0735 7.71989H64.0167V6.28003C64.0167 2.20551 65.6064 1.40899 66.7399 1.40899C67.7474 1.40899 68.6359 2.08297 69.3711 4.16618C69.6162 4.8708 69.8613 5.57541 71.1446 5.57541C72.3972 5.57541 73.6227 4.84016 73.6227 3.58411C73.6227 2.05233 71.696 -0.000244141 67.0462 -0.000244141C61.6033 -0.000244141 59.401 2.75695 59.401 6.95401V7.71989H57.4744V9.25167H59.401V20.0694C59.401 21.3561 59.1559 21.4786 57.4131 21.5705V22.7347H65.6404V21.5705L64.9971 21.5093C64.3537 21.448 64.0201 21.2948 64.0201 20.2838V9.25507H68.0572C69.0069 9.25507 69.2486 9.46952 69.2486 10.8175V20.2872C69.2486 21.2982 68.9116 21.4514 68.2683 21.5127L67.6249 21.5739V22.7381H75.8522V21.5739C74.1094 21.4786 73.8643 21.3561 73.8643 20.0694Z" fill="white"/>
<path fill-rule="evenodd" clip-rule="evenodd" d="M85.373 20.7434C83.3851 20.7434 81.4585 19.3955 81.4585 14.6163C81.4585 10.5112 82.7724 8.76494 84.0591 8.76494C85.1313 8.76494 85.6487 9.71464 86.1695 11.5528C86.384 12.2574 86.8435 12.625 87.6366 12.625C88.7055 12.625 90.176 12.0736 90.176 10.7256C90.176 8.5505 87.1192 7.35571 84.3348 7.35571C81.9486 7.35571 80.0527 8.02969 78.6775 9.40829C77.3942 10.695 76.5977 12.6863 76.5977 15.3516C76.5977 20.4983 79.474 23.1057 83.7834 23.1057C86.3227 23.1057 89.165 22.248 90.3598 18.4492L89.291 17.959C88.2493 20.0388 87.0546 20.7434 85.373 20.7434Z" fill="white"/>
<path fill-rule="evenodd" clip-rule="evenodd" d="M106.161 21.0191C105.763 20.8966 105.181 20.5289 105.181 18.7215V11.6413C105.181 9.74186 104.874 7.35229 99.4619 7.35229C94.9653 7.35229 92.2149 9.12915 92.2149 11.1205C92.2149 12.4991 94.1722 13.0505 94.9687 13.0505C95.6427 13.0505 95.9763 12.5603 96.2214 11.8251C97.0757 9.22106 98.0561 8.76153 98.9139 8.76153C99.8023 8.76153 100.687 9.28233 100.687 11.0286V12.6522C99.6151 13.3875 97.0485 14.1534 95.0606 14.8273C92.6438 15.6545 91.8201 16.9106 91.8201 18.6568C91.8201 20.9544 93.3484 23.0989 96.4392 23.0989C98.3965 23.0989 99.741 22.0267 100.813 21.3221C101.212 22.2718 101.732 23.0989 103.199 23.0989C104.789 23.0989 106.716 22.5781 107.727 22.1799L107.635 21.1689C107.233 21.2029 106.62 21.1723 106.161 21.0191ZM100.687 18.6295C100.626 20.2839 99.6151 20.7128 98.7913 20.7128C97.6 20.7128 96.5277 19.7631 96.5277 18.1394C96.5277 16.6995 97.0179 15.9949 97.9335 15.4741C98.8832 14.9533 99.9521 14.5244 100.687 14.1874V18.6295Z" fill="white"/>
<path fill-rule="evenodd" clip-rule="evenodd" d="M117.666 20.4986C117.237 20.6824 116.594 20.8049 115.923 20.8049C114.763 20.8049 113.966 19.9471 113.966 17.9865V9.25535H117.145V7.72358H113.966V3.86011H112.193L109.5 7.72018H107.573V9.25195H109.347V19.1506C109.347 21.9384 111.427 23.1026 113.139 23.1026C114.392 23.1026 116.288 22.5205 118 21.4483L117.666 20.4986Z" fill="white"/>
<path fill-rule="evenodd" clip-rule="evenodd" d="M11.2761 11.9071H13.8869V15.0455H14.9286L17.0186 11.9071V7.72021H11.2761V11.9071Z" fill="white"/>
<path fill-rule="evenodd" clip-rule="evenodd" d="M7.40589 9.92939C7.22207 9.34731 7.28334 9.10223 7.83478 9.04096L8.96489 8.88778V7.72363H0.860107V8.88778C2.05149 8.97969 2.44975 9.25541 2.84801 10.2357C3.64453 12.1964 4.34574 14.1571 5.08099 16.1518L7.46716 22.7384H11.7936L10.4048 18.6945L7.40589 9.92939Z" fill="white"/>
</svg>
